<?xml version="1.0" encoding="utf-8"?>
<!-- Generator: Adobe Illustrator 15.0.0, SVG Export Plug-In . SVG Version: 6.00 Build 0)  -->
<!DOCTYPE svg PUBLIC "-//W3C//DTD SVG 1.1//EN" "http://www.w3.org/Graphics/SVG/1.1/DTD/svg11.dtd">
<svg version="1.1" id="Layer_2_copy" xmlns="http://www.w3.org/2000/svg" xmlns:xlink="http://www.w3.org/1999/xlink" x="0px"
	 y="0px" width="1200px" height="1200px" viewBox="0 0 1200 1200" enable-background="new 0 0 1200 1200" xml:space="preserve">
<path fill-rule="evenodd" clip-rule="evenodd" fill="#339900" d="M599.333,162.085c176.461,0,319.508,143.049,319.508,319.507
	c0,176.462-143.047,319.513-319.508,319.513c-176.458,0-319.507-143.051-319.507-319.513
	C279.826,305.134,422.875,162.085,599.333,162.085z M823.962,520.794c-4.775-0.597-8.648,0.222-9.754,9.791
	c-1.775,15.312-5.669,24.515-19.039,23.353c-15.457-1.346-17.6-11.071-18.679-28.595c-0.367-5.995-2.315-7.968-11.13-8.779
	c-18.324-1.688-41.171-3.11-54.222-8.766c-4.608,69.655-45.585,78.102-111.8,78.102c-0.799,0-1.578-0.014-2.37-0.018
	c3.353,18.908,3.374,46.968,4.026,63.736c0.3,7.735,4.412,11.536,12.096,11.577c15.257,0.087,23.928,5.756,22.586,21.203
	c-1.22,14.057-7.614,15.738-21.584,15.544c-8.12-0.111-13.021,3.075-12.77,10.606c0.555,16.483-9.468,25.707-23.438,24.493
	c-15.795-1.373-19.876-9.369-17.695-26.771c0.598-4.774-0.222-8.647-9.793-9.753c-15.308-1.775-24.511-5.669-23.349-19.039
	c1.342-15.457,11.068-17.601,28.592-18.679c5.997-0.367,7.969-2.316,8.781-11.13c1.562-16.955,3.316-44.333,8.313-62.624
	c-54.309-3.911-86.203-23.089-86.203-91.072c0-5.055,0.3-10.665,0.931-16.615c-13.603,4.743-37.727,5.229-56.094,5.943
	c-7.736,0.298-11.534,4.41-11.578,12.094c-0.085,15.256-5.754,23.928-21.201,22.586c-14.055-1.221-15.736-7.614-15.544-21.584
	c0.111-8.12-3.074-13.02-10.606-12.771c-16.485,0.556-25.707-9.465-24.493-23.437c1.371-15.796,9.369-19.876,26.771-17.696
	c4.774,0.598,8.646-0.222,9.755-9.793c1.773-15.308,5.667-24.51,19.036-23.349c15.459,1.342,17.602,11.067,18.678,28.591
	c0.369,5.997,2.318,7.97,11.13,8.781c19.982,1.841,45.336,3.367,57.498,10.411c9.875-43.768,38.929-94.349,107.846-94.349
	c1.051,0,2.049,0.071,3.083,0.095c-3.008-13.935-3.454-33.635-4.059-49.21c-0.302-7.735-4.412-11.534-12.096-11.577
	c-15.258-0.085-23.93-5.754-22.588-21.201c1.222-14.055,7.614-15.736,21.585-15.544c8.123,0.111,13.021-3.073,12.769-10.606
	c-0.553-16.485,9.468-25.707,23.441-24.493c15.794,1.372,19.875,9.369,17.694,26.771c-0.597,4.774,0.222,8.646,9.792,9.755
	c15.312,1.774,24.514,5.667,23.352,19.036c-1.345,15.459-11.071,17.602-28.595,18.679c-5.995,0.369-7.968,2.318-8.779,11.13
	c-1.536,16.687-2.854,37.121-7.344,50.501c61.42,15.185,81.995,79.388,84.419,119.77c13.623-4.705,37.658-5.19,55.977-5.905
	c7.735-0.298,11.535-4.41,11.577-12.094c0.086-15.258,5.755-23.93,21.202-22.588c14.057,1.223,15.738,7.614,15.544,21.586
	c-0.11,8.124,3.075,13.02,10.606,12.771c16.483-0.555,25.707,9.466,24.493,23.438C849.359,518.894,841.364,522.975,823.962,520.794z
	 M566.326,491.995c0-13.873-7.316-37.712-21.19-37.712c-13.876,0-21.192,23.839-21.192,37.712c0,13.876-1.212,28.9,21.192,29.617
	C570.195,522.414,566.326,505.871,566.326,491.995z M674.174,491.995c0-13.873-7.316-37.712-21.192-37.712
	c-13.873,0-21.188,23.839-21.188,37.712c0,13.876-1.214,28.9,21.188,29.617C678.043,522.414,674.174,505.871,674.174,491.995z
	 M782.735,374.338c-8.596-0.255-8.086,2.626-8.374,7.543c-0.991,17.004-4.383,25.1-19.004,25.1c-15.606,0-19.399-8.013-19.32-24.817
	c0.024-5.135-1.092-7.77-7.205-8.068c-16.702-0.817-25.623-2.386-25.623-16.721c0-15.431,9.06-22.629,25.724-20.437
	c4.407,0.579,6.085-2.578,6.771-7.151c2.445-16.303,3.18-25.079,19.653-25.079c14.795,0,19.905,8.267,19.171,24.098
	c-0.312,6.777,2.548,8.293,7.624,7.782c16.64-1.68,25.017,2.895,25.017,19.663C807.169,371.426,799.021,374.822,782.735,374.338z
	 M500.253,344.809c-6.777-0.314-8.294,2.545-7.783,7.621c1.68,16.641-2.895,25.019-19.663,25.019
	c-15.174,0-18.571-8.148-18.087-24.435c0.255-8.595-2.626-8.087-7.543-8.374c-17.004-0.992-25.1-4.382-25.1-19.002
	c0-15.61,8.013-19.401,24.817-19.321c5.135,0.026,7.77-1.091,8.068-7.205c0.816-16.702,2.385-25.622,16.721-25.622
	c15.431,0,22.629,9.059,20.436,25.722c-0.579,4.407,2.578,6.083,7.151,6.77c16.303,2.448,25.079,3.182,25.079,19.656
	C524.351,340.433,516.084,345.542,500.253,344.809z M416.625,588.58c4.407,0.583,6.083-2.576,6.77-7.149
	c2.448-16.303,3.182-25.079,19.656-25.079c14.795,0,19.904,8.267,19.171,24.098c-0.314,6.775,2.545,8.294,7.621,7.781
	c16.642-1.679,25.019,2.898,25.019,19.665c0,15.178-8.148,18.576-24.434,18.091c-8.596-0.257-8.088,2.625-8.374,7.545
	c-0.992,17-4.383,25.1-19.003,25.1c-15.61,0-19.401-8.017-19.321-24.819c0.026-5.135-1.091-7.77-7.205-8.068
	c-16.702-0.814-25.622-2.385-25.622-16.725C390.903,593.586,399.961,586.388,416.625,588.58z M698.538,619.751
	c5.136,0.024,7.771-1.092,8.068-7.206c0.815-16.705,2.386-25.625,16.724-25.625c15.429,0,22.627,9.06,20.436,25.726
	c-0.582,4.407,2.576,6.086,7.15,6.772c16.303,2.444,25.079,3.18,25.079,19.653c0,14.795-8.267,19.905-24.099,19.17
	c-6.774-0.312-8.294,2.549-7.78,7.625c1.678,16.64-2.898,25.017-19.663,25.017c-15.177,0-18.574-8.148-18.089-24.434
	c0.257-8.596-2.625-8.086-7.545-8.374c-17-0.991-25.1-4.383-25.1-19.004C673.72,623.465,681.735,619.671,698.538,619.751z"/>
<g>
	<path fill="#339900" d="M439.951,925.884c0,13.308-1.913,25.426-5.738,36.368c-3.822,10.943-9.238,20.276-16.249,28.001
		c-7.01,7.724-15.453,13.733-25.329,18.023c-9.878,4.288-20.767,6.437-32.66,6.437c-11.897,0-22.73-2.146-32.5-6.437
		c-9.771-4.29-18.16-10.301-25.17-18.023c-7.01-7.725-12.481-17.058-16.409-28.001C281.961,951.31,280,939.19,280,925.884
		c0-13.301,1.961-25.37,5.895-36.207c3.928-10.832,9.449-20.114,16.569-27.84c7.114-7.725,15.559-13.679,25.33-17.862
		c9.769-4.185,20.498-6.275,32.182-6.275c11.681,0,22.464,2.092,32.342,6.275c9.878,4.185,18.318,10.139,25.331,17.862
		c7.01,7.725,12.476,17.008,16.407,27.84C437.984,900.514,439.951,912.583,439.951,925.884z M400.701,925.884
		c0-16.735-1.935-29.98-9.798-39.748c-7.868-9.761-16.842-14.644-30.93-14.644c-14.087,0-23.063,4.883-30.928,14.644
		c-7.869,9.768-9.798,23.013-9.798,39.748c0,16.952,1.929,30.364,9.798,40.23c7.863,9.872,16.841,14.805,30.928,14.805
		c14.089,0,23.062-4.933,30.93-14.805C398.768,956.248,400.701,942.836,400.701,925.884z"/>
	<path fill="#339900" d="M639.951,925.884c0,13.308-1.913,25.426-5.738,36.368c-3.822,10.943-9.238,20.276-16.249,28.001
		c-7.01,7.724-15.453,13.733-25.329,18.023c-9.878,4.288-20.767,6.437-32.66,6.437c-11.897,0-22.73-2.146-32.5-6.437
		c-9.771-4.29-18.16-10.301-25.171-18.023c-7.011-7.725-12.48-17.058-16.408-28.001C481.961,951.31,480,939.19,480,925.884
		c0-13.301,1.961-25.37,5.895-36.207c3.929-10.832,9.449-20.114,16.568-27.84c7.114-7.725,15.559-13.679,25.33-17.862
		c9.769-4.185,20.498-6.275,32.182-6.275c11.681,0,22.463,2.092,32.342,6.275c9.878,4.185,18.318,10.139,25.33,17.862
		c7.011,7.725,12.477,17.008,16.408,27.84C637.984,900.514,639.951,912.583,639.951,925.884z M600.701,925.884
		c0-16.735-1.935-29.98-9.798-39.748c-7.868-9.761-16.841-14.644-30.93-14.644c-14.087,0-23.063,4.883-30.928,14.644
		c-7.869,9.768-9.799,23.013-9.799,39.748c0,16.952,1.93,30.364,9.799,40.23c7.863,9.872,16.841,14.805,30.928,14.805
		c14.089,0,23.062-4.933,30.93-14.805C598.768,956.248,600.701,942.836,600.701,925.884z"/>
	<path fill="#339900" d="M919.071,998.667v-82.082c0-11.37-0.915-21.83-2.735-31.38c-1.825-9.545-5.148-17.701-9.978-24.46
		c-4.827-6.759-11.48-12.015-19.954-15.771c-8.479-3.752-21.261-5.633-34.346-5.633c-5.148,0-10.249,0.538-15.288,1.609
		c-5.044,1.076-10.815,2.414-15.321,4.022c-4.506,1.609-8.584,3.379-12.229,5.312c-3.65,1.931-6.653,3.756-9.012,5.471
		c-4.938-4.933-11.104-8.9-18.506-11.908c-7.403-3.002-19.897-4.506-31.483-4.506c-13.518,0-28.341,0.966-40.461,2.896
		c-12.124,1.932-21.939,3.974-29.448,6.114v150.313c0,10.768,8.729,15.163,19.496,15.163c10.769,0,19.496-4.396,19.497-15.163h-0.05
		V875.389c2.574-0.428,6.437-0.966,11.586-1.608c5.149-0.644,11.866-0.966,16.161-0.966c12.014,0,23.221,3.918,27.621,11.747
		c4.396,7.835,6.598,20.549,6.598,38.14v75.967h-0.024c0,10.768,8.729,15.163,19.495,15.163c10.769,0,19.496-4.396,19.497-15.163
		h-0.023v-80.473c0-6.864-0.322-13.303-0.966-19.312c-0.645-6.005-1.825-11.692-3.54-17.059c2.786-1.932,5.97-3.912,11.552-5.954
		c5.577-2.036,13.476-3.058,19.702-3.058c12.229,0,22.487,3.917,26.781,11.747c4.29,7.835,6.438,20.549,6.438,38.14v75.967h-0.051
		c0,10.768,8.729,15.163,19.496,15.163C910.342,1013.83,919.07,1009.434,919.071,998.667z"/>
</g>
</svg>
