<?xml version="1.0" encoding="utf-8"?>
<!-- Generator: Adobe Illustrator 15.0.0, SVG Export Plug-In . SVG Version: 6.00 Build 0)  -->
<!DOCTYPE svg PUBLIC "-//W3C//DTD SVG 1.1//EN" "http://www.w3.org/Graphics/SVG/1.1/DTD/svg11.dtd">
<svg version="1.1" id="Layer_2_copy" xmlns="http://www.w3.org/2000/svg" xmlns:xlink="http://www.w3.org/1999/xlink" x="0px"
	 y="0px" width="16px" height="16px" viewBox="0 0 16 16" enable-background="new 0 0 16 16" xml:space="preserve">
<g>
	<path fill-rule="evenodd" clip-rule="evenodd" d="M14.887,9.156c-0.148-0.018-0.268,0.006-0.302,0.302
		c-0.054,0.474-0.175,0.758-0.587,0.722c-0.479-0.041-0.545-0.342-0.578-0.883c-0.012-0.187-0.072-0.247-0.344-0.271
		c-0.564-0.053-1.271-0.097-1.676-0.271c-0.143,2.152-1.408,2.414-3.454,2.414c-0.024,0-0.048-0.001-0.073-0.001
		c0.103,0.585,0.104,1.451,0.124,1.968c0.009,0.24,0.136,0.357,0.374,0.359c0.47,0.003,0.74,0.178,0.699,0.654
		c-0.039,0.435-0.236,0.487-0.667,0.48C8.151,14.627,8,14.725,8.008,14.957c0.017,0.509-0.292,0.794-0.725,0.757
		c-0.488-0.042-0.614-0.29-0.546-0.827c0.018-0.148-0.007-0.268-0.302-0.302c-0.474-0.054-0.758-0.175-0.722-0.587
		c0.042-0.479,0.342-0.545,0.883-0.578c0.186-0.012,0.247-0.072,0.271-0.344c0.048-0.524,0.103-1.369,0.257-1.936
		c-1.679-0.121-2.663-0.713-2.663-2.814c0-0.154,0.008-0.329,0.028-0.513C4.069,7.96,3.324,7.976,2.756,7.998
		C2.518,8.007,2.4,8.134,2.399,8.371c-0.003,0.471-0.178,0.739-0.655,0.7C1.31,9.031,1.257,8.833,1.263,8.402
		C1.267,8.151,1.168,8,0.936,8.008c-0.51,0.017-0.794-0.292-0.757-0.725c0.042-0.488,0.289-0.614,0.827-0.546
		C1.153,6.754,1.273,6.73,1.307,6.434c0.055-0.473,0.176-0.757,0.589-0.721c0.478,0.042,0.543,0.342,0.576,0.883
		c0.012,0.186,0.072,0.247,0.345,0.271c0.617,0.058,1.4,0.105,1.776,0.323c0.306-1.353,1.203-2.916,3.333-2.916
		c0.032,0,0.063,0.002,0.095,0.002c-0.092-0.431-0.106-1.039-0.125-1.52C7.886,2.517,7.759,2.4,7.522,2.399
		C7.05,2.396,6.782,2.221,6.824,1.744c0.037-0.435,0.235-0.487,0.667-0.48c0.251,0.004,0.401-0.095,0.394-0.328
		c-0.017-0.51,0.292-0.794,0.725-0.757c0.488,0.042,0.615,0.289,0.547,0.827C9.139,1.153,9.162,1.273,9.458,1.307
		c0.474,0.055,0.758,0.176,0.722,0.589c-0.041,0.477-0.342,0.543-0.883,0.576C9.111,2.483,9.05,2.544,9.025,2.817
		c-0.047,0.515-0.09,1.146-0.228,1.56c1.898,0.469,2.534,2.453,2.61,3.7c0.42-0.145,1.162-0.16,1.727-0.182
		c0.24-0.009,0.359-0.136,0.359-0.374c0.003-0.471,0.178-0.739,0.654-0.697c0.435,0.037,0.487,0.235,0.48,0.667
		c-0.002,0.251,0.096,0.401,0.328,0.394c0.509-0.017,0.794,0.292,0.757,0.725C15.672,9.098,15.425,9.225,14.887,9.156z M6.926,8.266
		c0-0.428-0.226-1.165-0.655-1.165c-0.428,0-0.654,0.737-0.654,1.165c0,0.43-0.038,0.895,0.654,0.915
		C7.046,9.206,6.926,8.695,6.926,8.266z M10.258,8.266c0-0.428-0.226-1.165-0.654-1.165S8.949,7.837,8.949,8.266
		c0,0.43-0.037,0.895,0.654,0.915C10.378,9.206,10.258,8.695,10.258,8.266z M13.611,4.631c-0.265-0.008-0.248,0.082-0.258,0.233
		C13.322,5.39,13.219,5.64,12.768,5.64c-0.482,0-0.6-0.248-0.598-0.767c0.001-0.159-0.033-0.241-0.221-0.25
		c-0.518-0.025-0.793-0.074-0.793-0.516c0-0.478,0.279-0.7,0.795-0.632c0.136,0.018,0.188-0.08,0.209-0.221
		c0.075-0.504,0.098-0.775,0.607-0.775c0.456,0,0.614,0.255,0.59,0.745c-0.007,0.208,0.081,0.256,0.237,0.24
		c0.514-0.051,0.772,0.09,0.772,0.608C14.367,4.541,14.115,4.646,13.611,4.631z M4.885,3.719c-0.209-0.011-0.256,0.079-0.24,0.235
		c0.051,0.514-0.09,0.773-0.608,0.773c-0.469,0-0.574-0.252-0.559-0.755c0.008-0.265-0.082-0.249-0.233-0.259
		c-0.526-0.03-0.776-0.135-0.776-0.586c0-0.483,0.247-0.6,0.767-0.598c0.158,0.001,0.24-0.033,0.25-0.223
		C3.51,1.79,3.56,1.515,4.002,1.515c0.478,0,0.699,0.279,0.632,0.795c-0.018,0.135,0.08,0.188,0.221,0.208
		c0.504,0.076,0.775,0.099,0.775,0.608C5.629,3.582,5.375,3.74,4.885,3.719z M2.301,11.25c0.136,0.019,0.188-0.079,0.209-0.221
		c0.076-0.502,0.099-0.775,0.607-0.775c0.458,0,0.616,0.256,0.593,0.746c-0.009,0.209,0.079,0.256,0.235,0.238
		c0.515-0.051,0.773,0.09,0.773,0.609c0,0.469-0.252,0.574-0.755,0.559c-0.265-0.009-0.249,0.08-0.258,0.232
		c-0.03,0.525-0.136,0.775-0.587,0.775c-0.482,0-0.6-0.248-0.597-0.767c0.001-0.158-0.033-0.241-0.223-0.249
		c-0.517-0.025-0.792-0.072-0.792-0.516C1.506,11.404,1.786,11.184,2.301,11.25z M11.012,12.214c0.158,0.001,0.24-0.035,0.249-0.224
		c0.025-0.516,0.073-0.791,0.517-0.791c0.477,0,0.697,0.279,0.631,0.795c-0.018,0.137,0.081,0.188,0.221,0.209
		c0.504,0.076,0.776,0.099,0.776,0.607c0,0.457-0.257,0.615-0.745,0.592c-0.209-0.01-0.256,0.078-0.24,0.236
		c0.051,0.514-0.09,0.773-0.609,0.773c-0.467,0-0.572-0.253-0.557-0.756c0.007-0.266-0.082-0.25-0.234-0.258
		c-0.523-0.031-0.775-0.137-0.775-0.588C10.244,12.328,10.492,12.21,11.012,12.214z"/>
</g>
</svg>
